<?xml version="1.0" encoding="UTF-8"?>
<svg id="Layer_1" data-name="Layer 1" xmlns="http://www.w3.org/2000/svg" viewBox="0 0 457.47 395.99">
  <defs>
    <style>
      .cls-1 {
        fill: #010101;
      }

      .cls-2 {
        fill: #231f20;
      }
    </style>
  </defs>
  <g>
    <path class="cls-2" d="M0,350.75h12.55l6.25,18.75h.15l6.25-18.75h12.5v35h-9.2v-19.4h-.1l-6.65,19.4h-5.85l-6.6-19.4h-.1v19.4H0v-35Z"/>
    <path class="cls-2" d="M48.62,384.13c-2.6-1.55-4.57-3.7-5.9-6.45-1.33-2.75-2-5.89-2-9.42s.68-6.68,2.03-9.45c1.35-2.77,3.33-4.93,5.95-6.5,2.62-1.57,5.76-2.35,9.43-2.35s6.86.78,9.48,2.35c2.62,1.57,4.58,3.73,5.9,6.48,1.32,2.75,1.98,5.91,1.98,9.47s-.67,6.67-2,9.42c-1.33,2.75-3.3,4.9-5.9,6.45-2.6,1.55-5.75,2.33-9.45,2.33s-6.9-.78-9.5-2.33ZM53.07,375.9c1.3,1.7,2.98,2.55,5.05,2.55s3.78-.84,5.05-2.53c1.27-1.68,1.9-4.24,1.9-7.67s-.64-5.97-1.93-7.7c-1.28-1.73-2.96-2.6-5.03-2.6s-3.75.87-5.05,2.6c-1.3,1.73-1.95,4.3-1.95,7.7s.65,5.95,1.95,7.65Z"/>
    <path class="cls-2" d="M78.48,350.75h10.3v26.5h14.25v8.5h-24.56v-35Z"/>
    <path class="cls-2" d="M105.88,350.75h26.46v8.2h-16.16v5.15h12.7v7.75h-12.7v5.4h16.61v8.5h-26.91v-35Z"/>
    <path class="cls-2" d="M141.87,384.13c-2.52-1.55-4.41-3.69-5.68-6.42-1.27-2.73-1.9-5.88-1.9-9.45s.64-6.72,1.93-9.47c1.28-2.75,3.18-4.91,5.7-6.48,2.52-1.57,5.58-2.35,9.18-2.35,5.03,0,8.89,1.35,11.58,4.05,2.68,2.7,4.23,6.33,4.63,10.9h-10.2c-.27-2.3-.92-4.02-1.95-5.15-1.03-1.13-2.38-1.7-4.05-1.7-2,0-3.57.84-4.7,2.53-1.13,1.68-1.7,4.24-1.7,7.67s.57,5.98,1.7,7.62c1.13,1.65,2.7,2.48,4.7,2.48,1.63,0,2.99-.49,4.08-1.48,1.08-.98,1.73-2.51,1.93-4.58h10.4c-.4,4.37-2,7.82-4.8,10.35-2.8,2.53-6.67,3.8-11.6,3.8-3.63,0-6.71-.78-9.23-2.33Z"/>
    <path class="cls-2" d="M174.38,383.3c-2.75-2.1-4.13-5.28-4.13-9.55v-23h10.25v22.6c0,1.57.44,2.81,1.33,3.72.88.92,2.08,1.38,3.58,1.38s2.69-.47,3.58-1.4c.88-.93,1.33-2.17,1.33-3.7v-22.6h10.25v23c0,4.27-1.38,7.45-4.13,9.55-2.75,2.1-6.43,3.15-11.03,3.15s-8.28-1.05-11.03-3.15Z"/>
    <path class="cls-2" d="M204.67,350.75h10.3v26.5h14.25v8.5h-24.56v-35Z"/>
    <path class="cls-2" d="M242.58,350.75h11.25l12.6,35h-10.5l-1.95-6h-11.55l-1.9,6h-10.35l12.4-35ZM251.68,372.7l-3.45-10.6h-.15l-3.4,10.6h7Z"/>
    <path class="cls-2" d="M268.74,350.75h16.31c4.7,0,8.17.93,10.4,2.8,2.23,1.87,3.35,4.35,3.35,7.45,0,2.23-.53,4.16-1.58,5.77-1.05,1.62-2.48,2.58-4.28,2.88v.1c1.47.23,2.65,1.06,3.55,2.48.9,1.42,1.43,3.21,1.6,5.38.13,1.87.32,3.54.55,5.02.23,1.48.47,2.42.7,2.83v.3h-10.05c-.4-.67-.72-2.98-.95-6.95-.07-1.57-.49-2.72-1.28-3.45-.78-.73-2.09-1.1-3.93-1.1h-4.1v11.5h-10.3v-35ZM283.84,366.85c1.37,0,2.46-.33,3.28-1,.82-.67,1.23-1.67,1.23-3s-.41-2.35-1.23-3.05c-.82-.7-1.88-1.05-3.18-1.05h-4.9v8.1h4.8Z"/>
    <path class="cls-2" d="M313.35,350.75h16.91c4.2,0,7.29.77,9.28,2.3,1.98,1.53,2.98,3.68,2.98,6.45,0,1.97-.47,3.56-1.4,4.77-.93,1.22-2.29,2.17-4.05,2.88v.1c2.2.53,3.88,1.52,5.05,2.95,1.17,1.43,1.75,3.28,1.75,5.55,0,3.07-1.03,5.5-3.08,7.3-2.05,1.8-5.16,2.7-9.33,2.7h-18.11v-35ZM328.41,364.5c2.87,0,4.3-1.05,4.3-3.15,0-1.03-.34-1.77-1.03-2.23s-1.79-.67-3.33-.67h-4.75v6.05h4.8ZM329.36,378.05c1.6,0,2.77-.3,3.5-.9.73-.6,1.1-1.5,1.1-2.7s-.4-2.03-1.2-2.6c-.8-.57-2.02-.85-3.65-.85h-5.5v7.05h5.75Z"/>
    <path class="cls-2" d="M347.16,350.75h10.3v35h-10.3v-35Z"/>
    <path class="cls-2" d="M368.37,384.13c-2.6-1.55-4.57-3.7-5.9-6.45-1.33-2.75-2-5.89-2-9.42s.67-6.68,2.03-9.45c1.35-2.77,3.33-4.93,5.95-6.5,2.62-1.57,5.76-2.35,9.43-2.35s6.86.78,9.48,2.35c2.62,1.57,4.58,3.73,5.9,6.48,1.32,2.75,1.98,5.91,1.98,9.47s-.67,6.67-2,9.42c-1.33,2.75-3.3,4.9-5.9,6.45-2.6,1.55-5.75,2.33-9.45,2.33s-6.9-.78-9.5-2.33ZM372.82,375.9c1.3,1.7,2.98,2.55,5.05,2.55s3.78-.84,5.05-2.53c1.27-1.68,1.9-4.24,1.9-7.67s-.64-5.97-1.93-7.7c-1.28-1.73-2.96-2.6-5.03-2.6s-3.75.87-5.05,2.6c-1.3,1.73-1.95,4.3-1.95,7.7s.65,5.95,1.95,7.65Z"/>
  </g>
  <text/>
  <g id="graphics">
    <g>
      <path class="cls-1" d="M422.87,345.65c-2.9-2.16-6.77-2.11-9.61.13-2.1,1.66-3.17,4.15-3,6.67.06.89.27,1.78.64,2.64l11.29,26.21,4.2-5.63-9.9-22.99c-.5-1.15.21-1.88.54-2.14s1.2-.78,2.2-.03l8.58,6.4,12.09,1.42-17.03-12.69h0Z"/>
      <path class="cls-1" d="M410.62,387.15c-.42,3.6,1.56,6.92,4.92,8.26,2.49.99,5.18.67,7.28-.74.74-.49,1.41-1.12,1.97-1.88l17.06-22.88-6.98-.82-14.96,20.07c-.75,1-1.73.75-2.12.6s-1.27-.65-1.13-1.89l1.25-10.63-4.81-11.18-2.48,21.1Z"/>
      <path class="cls-1" d="M452.69,377c3.33-1.43,5.21-4.8,4.69-8.39-.39-2.65-2-4.82-4.28-5.94-.8-.39-1.68-.66-2.61-.76l-28.35-3.33,2.78,6.45,24.86,2.92c1.24.15,1.52,1.12,1.58,1.54.06.41.08,1.43-1.07,1.92l-9.83,4.23-7.27,9.76,19.51-8.4h0Z"/>
    </g>
  </g>
</svg>