<?xml version="1.0" encoding="UTF-8"?>
<svg id="Layer_2" data-name="Layer 2" xmlns="http://www.w3.org/2000/svg" viewBox="0 0 40 4.5404 px">
  <defs>
    <style>
      .cls-1 {
        fill: #010101;
      }

      .cls-2 {
        fill: #231f20;
      }
    </style>
  </defs>
  <g id="Layer_1-2" data-name="Layer 1">
    <g>
      <g>
        <path class="cls-2" d="M0,.88h1.65l.82,2.46h.02l.82-2.46h1.64v4.59h-1.21v-2.54h-.01l-.87,2.54h-.77l-.87-2.54h-.01v2.54H0V.88Z"/>
        <path class="cls-2" d="M6.38,5.26c-.34-.2-.6-.49-.77-.85-.17-.36-.26-.77-.26-1.24s.09-.88.27-1.24c.18-.36.44-.65.78-.85.34-.21.76-.31,1.24-.31s.9.1,1.24.31c.34.21.6.49.77.85.17.36.26.77.26,1.24s-.09.88-.26,1.24c-.17.36-.43.64-.77.85-.34.2-.75.3-1.24.3s-.91-.1-1.25-.3ZM6.96,4.18c.17.22.39.33.66.33s.5-.11.66-.33c.17-.22.25-.56.25-1.01s-.08-.78-.25-1.01c-.17-.23-.39-.34-.66-.34s-.49.11-.66.34c-.17.23-.26.56-.26,1.01s.09.78.26,1Z"/>
        <path class="cls-2" d="M10.29.88h1.35v3.48h1.87v1.11h-3.22V.88Z"/>
        <path class="cls-2" d="M13.89.88h3.47v1.08h-2.12v.68h1.67v1.02h-1.67v.71h2.18v1.11h-3.53V.88Z"/>
        <path class="cls-2" d="M18.61,5.26c-.33-.2-.58-.48-.74-.84-.17-.36-.25-.77-.25-1.24s.08-.88.25-1.24c.17-.36.42-.64.75-.85.33-.21.73-.31,1.2-.31.66,0,1.17.18,1.52.53.35.35.55.83.61,1.43h-1.34c-.04-.3-.12-.53-.26-.68-.14-.15-.31-.22-.53-.22-.26,0-.47.11-.62.33-.15.22-.22.56-.22,1.01s.07.78.22,1c.15.22.35.32.62.32.21,0,.39-.06.53-.19.14-.13.23-.33.25-.6h1.36c-.05.57-.26,1.03-.63,1.36-.37.33-.87.5-1.52.5-.48,0-.88-.1-1.21-.3Z"/>
        <path class="cls-2" d="M22.87,5.15c-.36-.28-.54-.69-.54-1.25V.88h1.34v2.96c0,.21.06.37.17.49.12.12.27.18.47.18s.35-.06.47-.18c.12-.12.17-.28.17-.49V.88h1.34v3.02c0,.56-.18.98-.54,1.25-.36.28-.84.41-1.45.41s-1.09-.14-1.45-.41Z"/>
        <path class="cls-2" d="M26.84.88h1.35v3.48h1.87v1.11h-3.22V.88Z"/>
        <path class="cls-2" d="M31.82.88h1.48l1.65,4.59h-1.38l-.26-.79h-1.52l-.25.79h-1.36l1.63-4.59ZM33.01,3.76l-.45-1.39h-.02l-.45,1.39h.92Z"/>
        <path class="cls-2" d="M35.25.88h2.14c.62,0,1.07.12,1.36.37.29.24.44.57.44.98,0,.29-.07.55-.21.76-.14.21-.32.34-.56.38h0c.19.04.35.15.47.34.12.19.19.42.21.7.02.24.04.46.07.66.03.19.06.32.09.37v.04h-1.32c-.05-.09-.09-.39-.12-.91,0-.21-.06-.36-.17-.45-.1-.1-.27-.14-.51-.14h-.54v1.51h-1.35V.88ZM37.23,2.99c.18,0,.32-.04.43-.13.11-.09.16-.22.16-.39s-.05-.31-.16-.4c-.11-.09-.25-.14-.42-.14h-.64v1.06h.63Z"/>
        <path class="cls-2" d="M41.1.88h2.22c.55,0,.96.1,1.22.3.26.2.39.48.39.85,0,.26-.06.47-.18.63-.12.16-.3.29-.53.38h0c.29.08.51.21.66.4.15.19.23.43.23.73,0,.4-.13.72-.4.96-.27.24-.68.35-1.22.35h-2.37V.88ZM43.07,2.68c.38,0,.56-.14.56-.41,0-.14-.04-.23-.13-.29s-.24-.09-.44-.09h-.62v.79h.63ZM43.2,4.46c.21,0,.36-.04.46-.12.1-.08.14-.2.14-.35s-.05-.27-.16-.34c-.1-.07-.26-.11-.48-.11h-.72v.92h.75Z"/>
        <path class="cls-2" d="M45.53.88h1.35v4.59h-1.35V.88Z"/>
        <path class="cls-2" d="M48.31,5.26c-.34-.2-.6-.49-.77-.85-.17-.36-.26-.77-.26-1.24s.09-.88.27-1.24c.18-.36.44-.65.78-.85.34-.21.76-.31,1.24-.31s.9.1,1.24.31c.34.21.6.49.77.85.17.36.26.77.26,1.24s-.09.88-.26,1.24c-.17.36-.43.64-.77.85-.34.2-.75.3-1.24.3s-.91-.1-1.25-.3ZM48.9,4.18c.17.22.39.33.66.33s.5-.11.66-.33c.17-.22.25-.56.25-1.01s-.08-.78-.25-1.01c-.17-.23-.39-.34-.66-.34s-.49.11-.66.34c-.17.23-.26.56-.26,1.01s.09.78.26,1Z"/>
      </g>
      <g id="graphics">
        <g>
          <path class="cls-1" d="M55.46.21c-.38-.28-.89-.28-1.26.02-.28.22-.42.54-.39.88,0,.12.04.23.08.35l1.48,3.44.55-.74-1.3-3.01c-.06-.15.03-.25.07-.28s.16-.1.29,0l1.13.84,1.59.19-2.23-1.66h0Z"/>
          <path class="cls-1" d="M53.86,5.65c-.06.47.2.91.65,1.08.33.13.68.09.95-.1.1-.06.18-.15.26-.25l2.24-3-.92-.11-1.96,2.63c-.1.13-.23.1-.28.08s-.17-.08-.15-.25l.16-1.39-.63-1.47-.33,2.77Z"/>
          <path class="cls-1" d="M59.37,4.32c.44-.19.68-.63.61-1.1-.05-.35-.26-.63-.56-.78-.1-.05-.22-.09-.34-.1l-3.72-.44.36.85,3.26.38c.16.02.2.15.21.2,0,.05.01.19-.14.25l-1.29.56-.95,1.28,2.56-1.1h0Z"/>
        </g>
      </g>
    </g>
  </g>
</svg>
