<?xml version="1.0" encoding="utf-8"?>
<!-- Generator: Adobe Illustrator 16.0.0, SVG Export Plug-In . SVG Version: 6.00 Build 0)  -->
<!DOCTYPE svg PUBLIC "-//W3C//DTD SVG 1.0//EN" "http://www.w3.org/TR/2001/REC-SVG-20010904/DTD/svg10.dtd">
<svg version="1.0" id="Layer_1" xmlns="http://www.w3.org/2000/svg" xmlns:xlink="http://www.w3.org/1999/xlink" x="0px" y="0px"
	 width="100px" height="100px" viewBox="0 0 100 100" enable-background="new 0 0 100 100" xml:space="preserve">
<path d="M41.667,70.569V30c0-3.682,2.984-6.667,6.666-6.667C52.012,23.333,55,26.318,55,30v19.661l18.099,5.173
	c3.529,1.009,5.82,4.775,5.104,8.369L72.845,90H42.239L23.62,71.38c-2.604-2.604-2.604-6.826,0-9.427
	c2.604-2.604,6.822-2.604,9.427,0L41.667,70.569z"/>
<path d="M66.81,37.653c0.98-2.36,1.523-4.941,1.523-7.653c0-11.035-8.951-20-20.006-20c-11.035,0-19.994,8.965-19.994,20
	c0,2.884,0.625,5.618,1.726,8.096l6.179-2.562C35.461,33.845,35,31.979,35,30c0-7.356,5.97-13.333,13.33-13.333
	c7.367,0,13.337,5.977,13.337,13.333c0,1.807-0.365,3.528-1.02,5.101L66.81,37.653z"/>
</svg>
